<?xml version="1.0" encoding="utf-8"?>
<!-- Generator: Adobe Illustrator 17.0.0, SVG Export Plug-In . SVG Version: 6.00 Build 0)  -->
<!DOCTYPE svg PUBLIC "-//W3C//DTD SVG 1.1//EN" "http://www.w3.org/Graphics/SVG/1.1/DTD/svg11.dtd">
<svg version="1.1" id="Layer_1" xmlns="http://www.w3.org/2000/svg" xmlns:xlink="http://www.w3.org/1999/xlink" x="0px" y="0px"
	 width="100px" height="100px" viewBox="0 0 100 100" enable-background="new 0 0 100 100" xml:space="preserve">
<g id="Your_Icon">
	<g>
		<path fill="#FFFFFF" d="M94,35.649C94,21.354,82.412,9.764,68.117,9.764c-6.95,0-13.254,2.743-17.902,7.201
			c-4.649-4.458-10.951-7.201-17.895-7.201c-14.298,0-25.887,11.59-25.887,25.886c0,7.692,3.364,14.6,8.697,19.345l28.775,28.772
			c1.659,1.666,3.875,2.587,6.24,2.587c0.086,0,0.178,0,0.262,0c2.355,0,4.568-0.914,6.233-2.575l29.341-29.347
			c0.192-0.191,0.374-0.395,0.544-0.598C91.146,49.156,94,42.733,94,35.649z"/>
	</g>
</g>
</svg>
