<?xml version="1.0" encoding="utf-8"?>
<!-- Generator: Adobe Illustrator 17.0.0, SVG Export Plug-In . SVG Version: 6.00 Build 0)  -->
<!DOCTYPE svg PUBLIC "-//W3C//DTD SVG 1.1//EN" "http://www.w3.org/Graphics/SVG/1.1/DTD/svg11.dtd">
<svg version="1.1" id="Layer_1" xmlns="http://www.w3.org/2000/svg" xmlns:xlink="http://www.w3.org/1999/xlink" x="0px" y="0px"
	 width="50px" height="50px" viewBox="0 0 50 50" enable-background="new 0 0 50 50" xml:space="preserve">
<g>
	<g>
		<path fill="#FC9B02" d="M14,39.246c-7,0-13.712-6.045-13.712-13.623S6.689,12,14.295,12H21v4h-6.705
			c-5.492,0-10.007,4.159-10.007,9.623c0,5.373,4.712,9.623,9.712,9.623V39.246z"/>
		<g>
			<polygon fill="#FC9B02" points="19,20.714 31.922,13.253 19,5.791 			"/>
		</g>
	</g>
	<g>
		<path fill="#FC9B02" d="M35.584,39H29v-4h6.584c5.436,0,10.068-4.515,10.068-9.916c0-5.402-4.652-9.918-9.652-9.918v-4
			c7,0,13.652,6.311,13.652,13.918C49.652,32.69,43.227,39,35.584,39z"/>
		<g>
			<polygon fill="#FC9B02" points="31,29.594 18.077,37.055 31,44.517 			"/>
		</g>
	</g>
</g>
</svg>
