<?xml version="1.0" encoding="utf-8"?>
<!-- Generator: Adobe Illustrator 17.0.0, SVG Export Plug-In . SVG Version: 6.00 Build 0)  -->
<!DOCTYPE svg PUBLIC "-//W3C//DTD SVG 1.1//EN" "http://www.w3.org/Graphics/SVG/1.1/DTD/svg11.dtd">
<svg version="1.1" id="Layer_1" xmlns="http://www.w3.org/2000/svg" xmlns:xlink="http://www.w3.org/1999/xlink" x="0px" y="0px"
	 width="38.135px" height="46px" viewBox="0 0 38.135 46" enable-background="new 0 0 38.135 46" xml:space="preserve">
<g>
	<path fill="#3C2415" d="M8.776,45.488c-0.072-1.317,0.143-2.751,0.877-4.22c0.129-0.26,0.447-0.366,0.708-0.237
		c0.263,0.133,0.367,0.447,0.237,0.709c-0.65,1.302-0.837,2.576-0.767,3.748h2.129c0.433-1.35,1.271-3.446,2.769-5.588
		c-1.682-0.244-3.492-0.956-5.027-2.581c-0.013-0.014-0.026-0.025-0.038-0.041c-0.2-0.214-0.189-0.547,0.026-0.746
		c0.213-0.2,0.547-0.188,0.746,0.026c0.066,0.071,0.137,0.138,0.205,0.207c1.488,1.485,3.233,2.049,4.799,2.182
		c0.002-0.003,0.003-0.004,0.006-0.006c0,0.002,0,0.003,0.002,0.006c0.193,0.355,0.379,0.709,0.557,1.057
		c1.123,2.195,1.93,4.196,2.41,5.484h6.153c1.327-4.858,1.788-10.406,0.627-16.538c-0.008-0.049-0.008-0.099-0.003-0.146
		c0.021-0.229,0.186-0.427,0.425-0.473c0.286-0.055,0.562,0.136,0.617,0.421c0.392,2.071,0.612,4.135,0.671,6.184
		c1.914-0.428,4.346-1.522,5.66-4.29c0.127-0.264,0.441-0.376,0.705-0.25c0.263,0.125,0.375,0.439,0.25,0.703
		c-1.527,3.212-4.413,4.431-6.601,4.885c0.003,3.215-0.415,6.389-1.237,9.504h4.225c6.662-10.783,8.277-17.567,7.707-21.829
		c-0.147-2.372-1.368-4.453-3.183-5.762c-0.005,0.047-0.009,0.095-0.019,0.143c-0.195,1.38-0.73,2.826-1.846,4.177
		c-0.105,0.127-0.254,0.194-0.408,0.194c-0.118,0-0.236-0.041-0.336-0.121c-0.035-0.029-0.062-0.062-0.086-0.095
		c-0.142-0.19-0.142-0.459,0.015-0.649c1.437-1.743,1.781-3.671,1.69-5.338c-0.224-1.465-0.982-3.293-2.689-5.888
		c-1.854-2.674-1.283-4.025-2.173-6.661c-0.839-2.481-2.29-3.045-4.539-3.147c-0.353,0.738-0.513,1.279-0.534,1.351
		c-0.066,0.232-0.277,0.384-0.508,0.384c-0.002,0-0.003-0.001-0.004-0.001c-0.002,0-0.004,0.001-0.008,0.001
		c-0.23,0-0.441-0.152-0.506-0.384c-0.021-0.071-0.182-0.61-0.533-1.35c-2.225,0.109-3.666,0.678-4.498,3.145
		c-0.891,2.636-0.32,3.987-2.174,6.661c-1.67,2.534-2.432,4.34-2.675,5.788c-0.013,0.197-0.021,0.398-0.021,0.602
		c0.005,1.539,0.422,3.255,1.727,4.836c0.186,0.225,0.154,0.558-0.07,0.744c-0.1,0.08-0.219,0.121-0.338,0.121
		c-0.152,0-0.303-0.067-0.408-0.194c-1.384-1.674-1.875-3.494-1.932-5.153c-2.552,1.089-4.395,3.521-4.645,6.406
		c-0.009,0.547,0.028,1.065,0.092,1.536c0.184,1.373,0.58,2.343,0.619,2.438c0.113,0.269-0.012,0.579-0.281,0.692
		c-0.067,0.027-0.137,0.041-0.205,0.041c-0.206,0-0.4-0.121-0.487-0.322c-0.011-0.026-0.476-1.161-0.675-2.781v-0.001
		c-0.002,0.001-0.006,0.001-0.008,0.001c-0.593,0.087-1.159,0.256-1.688,0.489c-1.535,0.641-3.239,1.967-3.729,4.712
		c-0.017,0.092-0.033,0.186-0.047,0.276c-0.002,0.014-0.002,0.026-0.004,0.04c-0.013,0.092-0.023,0.183-0.033,0.275
		c-0.323,3.039,0.752,7.644,4.752,14.622H8.776z M15.814,12.851c0.165-0.102,0.381-0.053,0.483,0.112
		c0.007,0.01,0.261,0.398,0.697,0.475c0.242,0.042,0.507-0.019,0.789-0.173c0.087-0.128,0.18-0.249,0.282-0.364
		c-0.239-0.045-0.462-0.123-0.663-0.243c-0.8-0.473-0.983-1.362-0.99-1.4c-0.038-0.191,0.087-0.375,0.276-0.413
		c0.19-0.037,0.375,0.086,0.414,0.275c0.003,0.014,0.138,0.629,0.665,0.937c0.297,0.175,0.669,0.225,1.11,0.153
		c0.374-0.231,0.79-0.396,1.235-0.482c0.764,0.714,1.783,1.155,2.908,1.155c0.002,0,0.002,0,0.003,0c1.12,0,2.136-0.438,2.897-1.146
		c0.428,0.085,0.822,0.251,1.182,0.473c0.445,0.072,0.821,0.021,1.117-0.157c0.525-0.311,0.658-0.925,0.661-0.93
		c0.039-0.192,0.223-0.316,0.413-0.278c0.191,0.038,0.315,0.222,0.276,0.413c-0.009,0.038-0.19,0.928-0.989,1.4
		c-0.201,0.12-0.426,0.198-0.664,0.243c0.104,0.115,0.195,0.236,0.282,0.365c0.282,0.153,0.548,0.214,0.788,0.172
		c0.441-0.079,0.695-0.471,0.698-0.475c0.103-0.165,0.321-0.213,0.484-0.111c0.165,0.102,0.216,0.316,0.114,0.481
		c-0.016,0.027-0.412,0.658-1.162,0.796c-0.1,0.017-0.195,0.025-0.293,0.025c-0.066,0-0.131-0.004-0.196-0.012
		c0.118,0.356,0.184,0.737,0.184,1.134c0,1.354-0.747,2.532-1.85,3.151c0.754,0.374,1.091,1.488,0.604,2.561
		c-1.023,2.256-4.039,2.441-4.525,2.455v0.001c0,0-0.012,0-0.033-0.001c-0.021,0.001-0.035,0.001-0.035,0.001v-0.001
		c-0.117-0.004-0.39-0.018-0.745-0.069c-1.097-0.161-3.006-0.683-3.777-2.386c-0.482-1.062-0.159-2.163,0.579-2.55
		c-0.572-0.316-1.046-0.784-1.375-1.348c-0.311-0.533-0.492-1.152-0.492-1.814c0-0.396,0.064-0.777,0.184-1.134
		c-0.066,0.007-0.133,0.012-0.197,0.012c-0.099,0-0.195-0.009-0.291-0.025c-0.754-0.138-1.148-0.769-1.166-0.795
		C15.596,13.168,15.649,12.952,15.814,12.851z"/>
	<path fill="#3C2415" d="M19.506,17.518c-0.135-0.985,0.387-1.677,0.988-2.008c0.783,0.268,1.624,0.417,2.498,0.417
		c0.892,0,1.747-0.156,2.544-0.435c0.35,0.184,0.63,0.477,0.8,0.834c0.164,0.32,0.248,0.709,0.191,1.16
		c0.752-0.451,1.256-1.271,1.256-2.21c0-1.005-0.578-1.876-1.418-2.302c-0.132,0.103-0.27,0.197-0.411,0.285
		c-0.118,0.074-0.239,0.144-0.362,0.211c-0.11,0.06-0.223,0.116-0.338,0.168h-0.001c-0.683,0.305-1.436,0.476-2.229,0.476
		c-0.834,0-1.621-0.191-2.33-0.525c-0.117-0.058-0.235-0.117-0.35-0.182c0.01,0.006,0.019,0.011,0.03,0.017
		c-0.025-0.014-0.052-0.026-0.075-0.04c0.015,0.009,0.029,0.015,0.045,0.023c-0.032-0.019-0.066-0.036-0.098-0.055
		c-0.204-0.121-0.402-0.251-0.588-0.396c-0.861,0.419-1.457,1.298-1.457,2.319C18.202,16.237,18.727,17.073,19.506,17.518z
		 M20.626,13.557c-0.012-0.006-0.023-0.012-0.033-0.017C20.602,13.546,20.614,13.551,20.626,13.557z"/>
	<circle fill="#3C2415" cx="22.044" cy="17.447" r="0.82"/>
	<circle fill="#3C2415" cx="23.985" cy="17.447" r="0.821"/>
	<path fill="#EA1A71" d="M26.162,20.494v-0.003c-0.001-0.004-0.001-0.008-0.002-0.014c-0.004-0.019-0.009-0.041-0.016-0.061
		c-0.003-0.007-0.005-0.014-0.007-0.023c-0.001-0.002-0.001-0.005-0.003-0.006c0,0,0-0.002-0.001-0.003
		c-0.01-0.025-0.022-0.048-0.037-0.069c0,0,0,0,0-0.002c-0.002-0.002-0.004-0.002-0.004-0.005c-0.003-0.003-0.007-0.006-0.01-0.01
		c-0.002-0.002-0.004-0.007-0.006-0.01c-0.463-0.58-1.682-1.45-3.062-0.809c-1.382-0.644-2.598,0.229-3.062,0.809
		c-0.003,0.002-0.004,0.006-0.007,0.009c-0.022,0.029-0.041,0.062-0.054,0.098c-0.004,0.006-0.004,0.011-0.006,0.017
		c-0.008,0.022-0.014,0.047-0.017,0.069c-0.001,0.003-0.003,0.008-0.003,0.011v0.003c0,0.004,0,0.007,0,0.011
		c-0.002,0.011-0.004,0.021-0.004,0.032c0,0.013,0.002,0.022,0.004,0.034c0,0.008,0,0.016,0.003,0.023
		c0.001,0.005,0.001,0.008,0.001,0.012c0.005,0.023,0.01,0.045,0.018,0.067c0.002,0.002,0.002,0.006,0.002,0.008
		c0.002,0,0.002,0.001,0.002,0.003c0.002,0.006,0.006,0.014,0.01,0.021c0,0.002,0,0.003,0.002,0.005
		c0,0.001,0.001,0.002,0.002,0.004c0.634,1.575,2.449,1.7,2.994,1.7c0.057,0,0.096-0.002,0.115-0.002
		c0.019,0,0.058,0.002,0.113,0.002c0.547,0,2.362-0.125,2.996-1.7c0.001-0.002,0.002-0.003,0.002-0.004
		c0.002-0.002,0.002-0.003,0.003-0.006c0,0,0-0.001,0.001-0.002c0.002-0.005,0.004-0.009,0.007-0.015
		c0-0.002,0.001-0.005,0.002-0.006c0.001-0.005,0.001-0.01,0.005-0.014c0.006-0.02,0.012-0.04,0.016-0.06
		c0-0.005,0.001-0.009,0.002-0.014c0-0.009,0-0.019,0.001-0.026c0.001-0.011,0.003-0.021,0.003-0.03
		c0-0.009-0.002-0.018-0.003-0.027C26.161,20.504,26.163,20.499,26.162,20.494z"/>
</g>
</svg>
