<?xml version="1.0" encoding="utf-8"?>
<!-- Generator: Adobe Illustrator 17.0.0, SVG Export Plug-In . SVG Version: 6.00 Build 0)  -->
<!DOCTYPE svg PUBLIC "-//W3C//DTD SVG 1.1//EN" "http://www.w3.org/Graphics/SVG/1.1/DTD/svg11.dtd">
<svg version="1.1" id="Layer_1" xmlns:sketch="http://www.bohemiancoding.com/sketch/ns"
	 xmlns="http://www.w3.org/2000/svg" xmlns:xlink="http://www.w3.org/1999/xlink" x="0px" y="0px" width="20px" height="16px"
	 viewBox="0 0 20 16" enable-background="new 0 0 20 16" xml:space="preserve">
<title>source twitter</title>
<description>Created with Sketch (http://www.bohemiancoding.com/sketch)</description>
<g id="Page-1" sketch:type="MSPage">
	<g id="Artboard-1" transform="translate(-16.000000, -31.000000)" sketch:type="MSArtboardGroup">
		<path id="Fill-1" sketch:type="MSShapeGroup" fill="#FFFFFF" d="M36,32.955c-0.736,0.32-1.527,0.537-2.357,0.634
			c0.847-0.498,1.498-1.288,1.804-2.228c-0.793,0.462-1.671,0.797-2.606,0.977c-0.748-0.783-1.815-1.272-2.995-1.272
			c-2.266,0-4.103,1.803-4.103,4.028c0,0.316,0.036,0.623,0.106,0.918c-3.41-0.168-6.434-1.771-8.457-4.208
			c-0.353,0.595-0.556,1.287-0.556,2.025c0,1.397,0.724,2.63,1.825,3.352c-0.673-0.021-1.305-0.202-1.859-0.504
			c0,0.017,0,0.034,0,0.051c0,1.951,1.414,3.579,3.292,3.949c-0.344,0.092-0.707,0.141-1.081,0.141
			c-0.264,0-0.521-0.025-0.772-0.072c0.522,1.6,2.037,2.765,3.833,2.797c-1.404,1.08-3.174,1.724-5.096,1.724
			c-0.331,0-0.658-0.019-0.979-0.056c1.816,1.143,3.973,1.81,6.29,1.81c7.547,0,11.675-6.137,11.675-11.46
			c0-0.175-0.004-0.348-0.012-0.521C34.754,34.472,35.45,33.763,36,32.955"/>
	</g>
</g>
</svg>
